<svg width="28" height="32" viewBox="0 0 28 32" fill="none" xmlns="http://www.w3.org/2000/svg">
<g clip-path="url(#clip0_157_67)">
<path d="M20.1834 13.0228L4.61691 0.785955C3.9773 0.282039 3.31205 0.0160828 2.74252 0.0160828C1.49209 0.0160828 0.663086 1.2147 0.663086 3.14353V28.8731C0.663086 29.8153 0.902829 30.6026 1.25825 31.1506C1.61911 31.7061 2.18365 32 2.79355 32C3.36286 32 4.00179 31.7335 4.64118 31.2304L20.1936 18.9936C21.1934 18.2061 21.7416 17.1461 21.7414 16.0077C21.7414 14.8697 21.1846 13.8098 20.1834 13.0228Z" fill="white"/>
<path d="M25.882 31.992L25.8655 31.9917C25.8628 31.9917 25.8601 31.992 25.8574 31.992H25.882Z" fill="white"/>
<path d="M25.8356 0L25.1922 0.00207373C24.3496 0.00207373 23.6201 0.786981 23.6201 1.75127V30.2241C23.6201 31.1894 24.3375 31.9819 25.1813 31.9819L25.8648 31.9917C26.7043 31.9866 27.3367 31.1874 27.3367 30.2257V1.74945C27.3367 0.785166 26.6789 0 25.8356 0Z" fill="white"/>
</g>
<defs>
<clipPath id="clip0_157_67">
<rect width="28" height="32" fill="white"/>
</clipPath>
</defs>
</svg>
