<svg width="18" height="18" viewBox="0 0 18 18" fill="none" xmlns="http://www.w3.org/2000/svg">
<g clip-path="url(#clip0_192_395)">
<path d="M8.99997 18C11.8796 18 14.4411 16.6464 16.0884 14.5422H11.3483C10.7363 16.582 10.3948 18 8.99997 18Z" fill="#C42126"/>
<path d="M8.46577 17.9845C8.46421 17.9845 8.4628 17.9841 8.46124 17.9841C8.4628 17.9841 8.46435 17.9845 8.46577 17.9845Z" fill="#C42126"/>
<path d="M11.3483 3.45774H16.0885C14.4411 1.35386 11.8796 0 8.99997 0C10.3948 0 10.7363 1.41793 11.3483 3.45774Z" fill="#C42126"/>
<path d="M8.46124 0.0157772C8.4628 0.0157772 8.46421 0.015405 8.46577 0.015405C8.46435 0.0153518 8.4628 0.0153518 8.46124 0.0157772Z" fill="#C42126"/>
<path d="M16.0887 3.45776H11.3483C12.305 6.64638 12.305 11.3541 11.3483 14.5422H16.0883C17.2848 13.0143 18 11.0915 18 9.00008C18.0002 6.90885 17.2849 4.98586 16.0887 3.45776Z" fill="#FFC40C"/>
<path d="M8.99998 17.9994C8.82092 17.9994 8.643 17.9943 8.46622 17.9844C8.64551 17.994 8.82377 17.9994 8.99998 17.9994Z" fill="#C42126"/>
<path d="M8.46622 0.0152775C8.64296 0.00508024 8.82092 0 8.99998 0C8.82377 0 8.64551 0.00563245 8.46622 0.0152775Z" fill="#C42126"/>
<path d="M12.0103 14.5422H1.9118C3.45552 16.5143 5.80257 17.827 8.46122 17.9842C8.46293 17.9842 8.46449 17.9845 8.4662 17.9845C8.64298 17.9947 8.8209 18 8.99996 18C10.3949 18 11.3983 16.582 12.0103 14.5422Z" fill="#D32030"/>
<path d="M1.9118 3.45774H12.0104C11.3983 1.41793 10.3949 0 9 0C8.82094 0 8.64302 0.00524412 8.46624 0.0157704C8.46453 0.0157704 8.46297 0.0160364 8.46126 0.0160364C5.80257 0.173094 3.45552 1.48603 1.9118 3.45774Z" fill="#D32030"/>
<path d="M3.05176e-05 9.00008C3.05176e-05 11.0915 0.715245 13.0143 1.91178 14.5422H12.0103C12.967 11.3539 12.967 6.64619 12.0103 3.45776H1.91178C0.715245 4.98586 3.05176e-05 6.90885 3.05176e-05 9.00008Z" fill="#FFD034"/>
</g>
<defs>
<clipPath id="clip0_192_395">
<rect width="18" height="18" fill="white"/>
</clipPath>
</defs>
</svg>
