<svg width="25" height="25" viewBox="0 0 25 25" fill="none" xmlns="http://www.w3.org/2000/svg">
<g clip-path="url(#clip0_192_417)">
<path d="M0.580787 25C0.440406 25 0.30384 24.9445 0.202559 24.8421C0.069045 24.707 0.0175466 24.511 0.0677099 24.3277L1.69296 18.3928C0.681113 16.563 0.147628 14.4932 0.148391 12.392C0.151252 5.55897 5.71194 0 12.5444 0C15.8585 0.00133515 18.9724 1.29223 21.3129 3.63445C23.653 5.97687 24.9413 9.09061 24.9403 12.402C24.9372 19.2352 19.3766 24.7946 12.5444 24.7946C12.5444 24.7946 12.5393 24.7946 12.5391 24.7946C10.5434 24.7938 8.56495 24.3074 6.80332 23.3862L0.715636 24.9826C0.671004 24.9943 0.625609 25 0.580787 25Z" fill="#E5E5E5"/>
<path d="M0.580788 24.4681L2.26383 18.322C1.22566 16.5232 0.679588 14.4827 0.680351 12.3923C0.683022 5.85253 6.00491 0.531982 12.5444 0.531982C15.7179 0.533318 18.6966 1.76852 20.9366 4.01041C23.1764 6.25231 24.4095 9.23235 24.4083 12.4018C24.4055 18.9413 19.0828 24.2626 12.5444 24.2626C12.5441 24.2626 12.5446 24.2626 12.5444 24.2626H12.5393C10.5537 24.2619 8.60291 23.7639 6.87008 22.8188L0.580788 24.4681ZM7.16133 20.6717L7.52163 20.8851C9.0353 21.7835 10.7708 22.2586 12.5406 22.2595H12.5444C17.9792 22.2595 22.4028 17.8368 22.4051 12.401C22.406 9.76679 21.3814 7.28972 19.5196 5.42643C17.6577 3.56314 15.1821 2.53641 12.5481 2.53527C7.10888 2.53527 2.68555 6.95746 2.68345 12.393C2.68269 14.2557 3.20377 16.0696 4.19102 17.6394L4.42562 18.0124L3.42922 21.6501L7.16133 20.6717Z" fill="white"/>
<path d="M0.993347 24.0541L2.61822 18.1205C1.61572 16.384 1.08871 14.4139 1.08929 12.3962C1.09177 6.08283 6.22959 0.946533 12.5423 0.946533C15.6063 0.947868 18.482 2.14034 20.644 4.30461C22.8065 6.46888 23.9967 9.34573 23.9956 12.4051C23.9929 18.7186 18.8549 23.8555 12.5429 23.8555C12.5423 23.8555 12.5431 23.8555 12.5429 23.8555H12.5378C10.6211 23.8547 8.73756 23.3737 7.06482 22.462L0.993347 24.0541Z" fill="#64B161"/>
<path d="M0.580788 24.4681L2.26383 18.322C1.22566 16.5232 0.679588 14.4827 0.680351 12.3923C0.683022 5.85253 6.00491 0.531982 12.5444 0.531982C15.7179 0.533318 18.6966 1.76852 20.9366 4.01041C23.1764 6.25231 24.4095 9.23235 24.4083 12.4018C24.4055 18.9413 19.0828 24.2626 12.5444 24.2626C12.5441 24.2626 12.5446 24.2626 12.5444 24.2626H12.5393C10.5537 24.2619 8.60291 23.7639 6.87008 22.8188L0.580788 24.4681ZM7.16133 20.6717L7.52163 20.8851C9.0353 21.7835 10.7708 22.2586 12.5406 22.2595H12.5444C17.9792 22.2595 22.4028 17.8368 22.4051 12.401C22.406 9.76679 21.3814 7.28972 19.5196 5.42643C17.6577 3.56314 15.1821 2.53641 12.5481 2.53527C7.10888 2.53527 2.68555 6.95746 2.68345 12.393C2.68269 14.2557 3.20377 16.0696 4.19102 17.6394L4.42562 18.0124L3.42922 21.6501L7.16133 20.6717Z" fill="white"/>
<path fill-rule="evenodd" clip-rule="evenodd" d="M9.57928 7.43398C9.35726 6.94036 9.12342 6.93044 8.91209 6.92186C8.73928 6.91442 8.54149 6.9148 8.34408 6.9148C8.14648 6.9148 7.82528 6.98918 7.55367 7.28578C7.28188 7.58237 6.51588 8.29953 6.51588 9.75808C6.51588 11.2168 7.57828 12.6262 7.72648 12.8241C7.87468 13.0219 9.77726 16.1107 12.7903 17.299C15.2945 18.2866 15.8039 18.0901 16.3475 18.0407C16.8911 17.9913 18.1013 17.3236 18.3483 16.6314C18.5955 15.9392 18.5955 15.346 18.5213 15.2219C18.4471 15.0985 18.2495 15.0243 17.9531 14.8761C17.6567 14.7279 16.1993 14.0105 15.9275 13.9117C15.6557 13.8127 15.4581 13.7635 15.2605 14.0603C15.0627 14.3567 14.4951 15.0243 14.3221 15.2219C14.1491 15.42 13.9761 15.4448 13.6797 15.2964C13.3833 15.1479 12.4285 14.8351 11.2959 13.8251C10.4147 13.0395 9.8196 12.069 9.64661 11.7722C9.4738 11.4758 9.64374 11.3294 9.77688 11.1674C10.0166 10.8758 10.4189 10.3515 10.5177 10.1539C10.6165 9.95587 10.5671 9.78288 10.4931 9.63449C10.4189 9.48628 9.84268 8.0203 9.57928 7.43398Z" fill="white"/>
</g>
<defs>
<clipPath id="clip0_192_417">
<rect width="25" height="25" fill="white"/>
</clipPath>
</defs>
</svg>
