<svg width="10" height="10" viewBox="0 0 10 10" fill="none" xmlns="http://www.w3.org/2000/svg">
<g clip-path="url(#clip0_146_509)">
<path d="M2.52978 5.34892L7.51726 8.81373C7.72219 8.95641 7.93567 9.03221 8.11873 9.03306C8.52065 9.03493 8.78868 8.69906 8.7912 8.15658L8.82481 0.920218C8.82605 0.655213 8.75001 0.433447 8.63649 0.278797C8.52123 0.122025 8.34015 0.0385092 8.14411 0.0375985C7.96113 0.0367483 7.75541 0.110739 7.54923 0.251291L2.5343 3.66964C2.21192 3.88963 2.03432 4.18691 2.03291 4.50711C2.03142 4.82715 2.20902 5.12609 2.52978 5.34892Z" fill="#808080"/>
<path d="M0.722126 0.00537107L0.72806 0.00547971C0.729033 0.00548422 0.729985 0.00540759 0.730957 0.0054121L0.722126 0.00537107Z" fill="#808080"/>
<path d="M0.69559 9.0031L0.902421 9.00348C1.17326 9.00474 1.40874 8.78507 1.41 8.51387L1.44721 0.50597C1.44847 0.234476 1.21891 0.0105376 0.947706 0.0092776L0.728004 0.00548646C0.458162 0.0056729 0.253863 0.229509 0.252606 0.499983L0.215399 8.50883C0.214139 8.78003 0.424534 9.00184 0.69559 9.0031Z" fill="#808080"/>
</g>
<defs>
<clipPath id="clip0_146_509">
<rect width="9" height="9" fill="white" transform="translate(9 9.04169) rotate(-179.734)"/>
</clipPath>
</defs>
</svg>
