<svg width="9" height="9" viewBox="0 0 9 9" fill="none" xmlns="http://www.w3.org/2000/svg">
<g clip-path="url(#clip0_146_1030)">
<path d="M6.48728 3.66265L1.48376 0.221043C1.27817 0.0793167 1.06434 0.0045166 0.88128 0.0045166C0.479357 0.0045166 0.212891 0.341627 0.212891 0.884111V8.12055C0.212891 8.38556 0.289951 8.60697 0.404192 8.76109C0.520183 8.91732 0.701643 9 0.897683 9C1.08067 9 1.28605 8.92505 1.49156 8.78354L6.49056 5.34194C6.81192 5.12045 6.98813 4.82234 6.98806 4.50215C6.98806 4.1821 6.80908 3.88399 6.48728 3.66265Z" fill="#808080"/>
<path d="M8.32036 8.99776L8.31442 8.99768C8.31345 8.99768 8.3125 8.99776 8.31152 8.99776H8.32036Z" fill="#808080"/>
<path d="M8.30491 0L8.09808 0.000583237C7.82723 0.000583237 7.59277 0.221338 7.59277 0.492543V8.50053C7.59277 8.77203 7.82337 8.9949 8.09458 8.9949L8.31429 8.99767C8.58413 8.99623 8.78739 8.77144 8.78739 8.50097V0.492033C8.78739 0.220828 8.57597 0 8.30491 0Z" fill="#808080"/>
</g>
<defs>
<clipPath id="clip0_146_1030">
<rect width="9" height="9" fill="white"/>
</clipPath>
</defs>
</svg>
