<svg width="10" height="10" viewBox="0 0 10 10" fill="none" xmlns="http://www.w3.org/2000/svg">
<g clip-path="url(#clip0_146_1039)">
<path d="M2.52978 5.34892L7.51726 8.81373C7.72219 8.95641 7.93567 9.03221 8.11873 9.03306C8.52065 9.03493 8.78868 8.69906 8.7912 8.15658L8.82481 0.920218C8.82605 0.655213 8.75001 0.433447 8.63649 0.278797C8.52123 0.122025 8.34015 0.0385092 8.14411 0.0375985C7.96113 0.0367483 7.75541 0.110739 7.54923 0.251291L2.5343 3.66964C2.21192 3.88963 2.03432 4.18691 2.03291 4.50711C2.03142 4.82715 2.20902 5.12609 2.52978 5.34892Z" fill="#808080"/>
<path d="M0.722614 0.00537107L0.728549 0.00547971C0.729521 0.00548422 0.730473 0.00540759 0.731446 0.0054121L0.722614 0.00537107Z" fill="#808080"/>
<path d="M0.696079 9.0031L0.902909 9.00348C1.17375 9.00474 1.40923 8.78507 1.41049 8.51387L1.44769 0.50597C1.44896 0.234476 1.2194 0.0105376 0.948194 0.0092776L0.728493 0.00548646C0.458651 0.0056729 0.254351 0.229509 0.253094 0.499983L0.215887 8.50883C0.214627 8.78003 0.425022 9.00184 0.696079 9.0031Z" fill="#808080"/>
</g>
<defs>
<clipPath id="clip0_146_1039">
<rect width="9" height="9" fill="white" transform="translate(9 9.04169) rotate(-179.734)"/>
</clipPath>
</defs>
</svg>
